<?xml version="1.0" standalone="no"?>
<!DOCTYPE svg PUBLIC "-//W3C//DTD SVG 20010904//EN"
 "http://www.w3.org/TR/2001/REC-SVG-20010904/DTD/svg10.dtd">
<svg version="1.0" xmlns="http://www.w3.org/2000/svg"
 width="1280.000000pt" height="1283.000000pt" viewBox="0 0 1280.000000 1283.000000"
 preserveAspectRatio="xMidYMid meet">
<metadata>
Created by potrace 1.16, written by Peter Selinger 2001-2019
</metadata>
<g transform="translate(0.000000,1283.000000) scale(0.100000,-0.100000)"
fill="#000000" stroke="none">
<path d="M1377 12414 c-474 -86 -860 -465 -956 -941 l-21 -101 0 -4942 0
-4942 21 -101 c85 -422 394 -768 804 -902 182 -59 -196 -55 5175 -55 4388 0
4937 2 5016 15 479 84 866 462 963 942 l21 101 0 4942 0 4942 -21 101 c-98
482 -483 858 -963 942 -79 13 -626 15 -5025 14 -4213 -1 -4947 -3 -5014 -15z
m9868 -794 c185 -27 318 -159 345 -345 13 -97 13 -9593 0 -9690 -14 -95 -49
-165 -114 -231 -66 -65 -136 -100 -231 -114 -97 -13 -9593 -13 -9690 0 -95 14
-165 49 -231 114 -65 66 -100 136 -114 231 -13 97 -13 9593 0 9690 14 95 49
165 114 231 64 63 138 101 222 113 85 12 9611 13 9699 1z"/>
<path d="M6080 10824 c-19 -2 -84 -9 -145 -15 -1197 -118 -2312 -751 -3058
-1737 -462 -610 -755 -1341 -854 -2132 -26 -209 -26 -811 0 -1020 89 -714 322
-1344 712 -1930 186 -278 350 -475 604 -723 332 -324 688 -575 1106 -781 467
-231 878 -356 1410 -428 152 -20 209 -23 545 -22 398 0 532 10 817 64 967 184
1842 685 2494 1428 586 668 942 1459 1061 2360 19 146 22 214 23 537 0 397 -8
506 -61 795 -216 1183 -912 2232 -1920 2893 -573 377 -1203 606 -1899 693
-122 15 -740 29 -835 18z m640 -815 c688 -57 1369 -331 1925 -776 226 -180
515 -485 676 -713 267 -377 465 -806 569 -1231 35 -143 75 -381 90 -528 13
-133 13 -514 0 -656 -68 -726 -356 -1418 -826 -1979 -125 -149 -362 -382 -509
-499 -598 -478 -1331 -755 -2077 -786 -800 -32 -1530 175 -2188 620 -326 220
-678 564 -901 879 -306 432 -509 904 -608 1410 -50 255 -56 329 -56 680 0 351
6 425 56 680 117 599 382 1154 774 1623 316 377 716 693 1155 912 605 301
1235 421 1920 364z"/>
<path d="M6335 7628 c-130 -17 -238 -99 -298 -226 -30 -63 -32 -74 -32 -177 0
-104 2 -114 32 -176 40 -81 102 -140 191 -182 62 -30 75 -32 172 -32 97 0 110
2 172 32 89 42 151 101 191 182 30 62 32 72 32 176 0 102 -2 115 -31 175 -37
79 -79 128 -142 168 -85 54 -181 74 -287 60z"/>
<path d="M5490 6016 c-117 -31 -193 -94 -252 -208 -32 -61 -33 -67 -33 -178 0
-110 2 -119 32 -181 40 -81 102 -140 191 -182 62 -30 75 -32 172 -32 97 0 110
2 172 32 89 42 151 101 191 182 30 62 32 72 32 176 0 103 -2 114 -32 177 -55
117 -144 190 -264 217 -59 14 -154 13 -209 -3z"/>
<path d="M7058 6008 c-76 -29 -144 -82 -191 -148 -94 -135 -92 -322 6 -467
102 -151 326 -208 498 -127 93 44 142 92 187 182 36 74 37 79 37 187 0 100 -3
115 -28 167 -41 84 -107 152 -185 190 -59 29 -76 33 -166 35 -84 2 -111 -1
-158 -19z"/>
</g>
</svg>
