<?xml version="1.0" standalone="no"?>
<!DOCTYPE svg PUBLIC "-//W3C//DTD SVG 20010904//EN"
 "http://www.w3.org/TR/2001/REC-SVG-20010904/DTD/svg10.dtd">
<svg version="1.0" xmlns="http://www.w3.org/2000/svg"
 width="1277.000000pt" height="1165.000000pt" viewBox="0 0 1277.000000 1165.000000"
 preserveAspectRatio="xMidYMid meet">
<metadata>
Created by potrace 1.16, written by Peter Selinger 2001-2019
</metadata>
<g transform="translate(0.000000,1165.000000) scale(0.100000,-0.100000)"
fill="#000000" stroke="none">
<path d="M4555 10899 c-419 -25 -810 -181 -1105 -442 -47 -41 -414 -405 -817
-808 -631 -633 -733 -740 -743 -776 -16 -54 -6 -102 31 -149 69 -87 88 -157
65 -237 -52 -177 -255 -225 -403 -97 -38 34 -99 46 -150 30 -30 -10 -119 -93
-401 -374 -200 -198 -370 -373 -378 -388 -8 -15 -14 -51 -14 -81 0 -44 5 -61
29 -93 35 -47 1385 -1394 1421 -1418 31 -20 112 -21 154 -1 18 9 195 178 393
378 316 317 363 367 373 405 15 58 4 103 -37 157 -47 62 -63 105 -63 167 1
129 100 228 230 228 62 0 115 -21 174 -68 43 -36 89 -47 143 -37 28 5 56 25
115 82 l77 76 26 -32 c15 -17 387 -444 826 -948 l800 -917 -1369 -1370 c-1040
-1043 -1380 -1389 -1419 -1446 -98 -145 -166 -311 -193 -470 -17 -97 -17 -295
-1 -390 73 -420 370 -769 770 -905 282 -96 628 -72 894 61 150 76 158 83 1519
1443 814 813 1331 1322 1336 1316 80 -88 1877 -2153 1921 -2208 288 -356 740
-520 1192 -433 527 101 940 564 977 1096 26 389 -93 713 -357 968 -58 56 -600
533 -1204 1058 l-1098 956 130 136 c71 75 260 267 419 425 l289 289 99 -31
c225 -69 446 -101 706 -101 274 0 489 34 737 116 779 260 1335 910 1481 1734
42 233 39 628 -5 844 -17 83 -54 128 -119 145 -94 23 -47 65 -891 -779 l-772
-772 -705 153 -705 154 -153 703 -153 704 771 772 c532 532 773 780 778 799 3
15 4 51 2 78 -7 73 -49 113 -137 133 -173 38 -511 51 -716 26 -521 -62 -990
-287 -1342 -642 -183 -185 -291 -336 -409 -572 -117 -237 -193 -498 -225 -775
-17 -154 -7 -504 20 -654 22 -124 60 -285 85 -353 l14 -41 -478 -478 -478
-478 -34 28 c-18 15 -444 386 -946 823 l-912 796 75 76 c80 83 95 110 95 171
0 45 -17 85 -50 114 -32 28 -70 113 -70 155 0 90 56 176 138 211 38 17 320
114 1476 510 191 66 359 127 372 135 28 19 64 90 64 129 0 69 -59 138 -270
316 -551 464 -1241 707 -1895 668z m445 -334 c371 -59 741 -212 1060 -439 122
-86 192 -144 182 -150 -5 -3 -356 -124 -780 -270 -424 -145 -799 -279 -833
-297 -233 -125 -342 -441 -233 -678 l25 -55 -508 -507 -508 -508 -75 27 c-97
34 -262 37 -350 8 -135 -46 -226 -112 -293 -213 -71 -107 -91 -176 -91 -313 0
-99 3 -125 25 -186 l26 -72 -238 -238 -239 -239 -575 575 -575 575 239 238
238 239 31 -16 c85 -44 258 -59 367 -31 197 50 350 201 399 391 30 114 18 259
-28 369 l-17 39 648 649 c684 685 794 790 910 868 195 132 442 220 698 249
112 12 370 5 495 -15z m4004 -787 c-375 -376 -687 -694 -694 -706 -6 -13 -12
-43 -12 -65 1 -63 348 -1643 369 -1680 10 -17 32 -39 49 -49 37 -21 1620 -368
1682 -368 24 0 53 5 65 11 12 6 329 318 705 693 l682 681 0 -75 c0 -529 -207
-1039 -564 -1396 -331 -329 -742 -514 -1234 -555 -670 -56 -1411 267 -1863
811 -483 582 -650 1312 -459 1995 129 459 438 863 847 1108 286 172 645 272
993 276 l115 1 -681 -682z m-3639 -2438 c501 -436 911 -796 913 -799 1 -3
-167 -175 -373 -381 l-375 -375 -24 25 c-13 14 -367 419 -786 900 -419 481
-782 896 -807 921 l-44 46 263 256 263 256 30 -28 c16 -16 440 -385 940 -821z
m2295 -50 c238 -431 606 -796 1038 -1028 l91 -48 -2407 -2406 c-2596 -2595
-2444 -2449 -2613 -2512 -156 -59 -360 -71 -519 -30 -90 22 -233 92 -308 149
-133 100 -256 291 -297 458 -57 236 -13 470 128 682 45 69 4817 4849 4828
4837 4 -4 30 -50 59 -102z m1502 -3260 c1336 -1163 1222 -1062 1276 -1135 59
-79 127 -221 153 -320 31 -114 31 -326 0 -440 -86 -321 -325 -564 -648 -657
-66 -19 -102 -23 -233 -23 -132 0 -167 3 -235 23 -181 53 -356 169 -470 314
-33 42 -484 561 -1002 1155 l-942 1078 487 488 c268 268 492 485 499 483 6 -3
508 -437 1115 -966z"/>
<path d="M3894 2920 c-48 -24 -110 -80 -335 -307 -291 -294 -311 -320 -325
-421 -14 -107 41 -230 130 -291 58 -40 154 -65 215 -56 109 16 138 38 432 333
183 183 285 292 300 322 15 31 24 69 27 121 6 109 -15 168 -87 240 -67 67
-123 89 -226 89 -60 0 -82 -5 -131 -30z"/>
</g>
</svg>
