<?xml version="1.0" standalone="no"?>
<!DOCTYPE svg PUBLIC "-//W3C//DTD SVG 20010904//EN"
 "http://www.w3.org/TR/2001/REC-SVG-20010904/DTD/svg10.dtd">
<svg version="1.0" xmlns="http://www.w3.org/2000/svg"
 width="1280.000000pt" height="2200.000000pt" viewBox="0 0 1280.000000 2200.000000"
 preserveAspectRatio="xMidYMid meet">
<metadata>
Created by potrace 1.16, written by Peter Selinger 2001-2019
</metadata>
<g transform="translate(0.000000,2200.000000) scale(0.100000,-0.100000)"
fill="#000000" stroke="none">
<path d="M6695 21985 c-89 -16 -210 -47 -300 -78 l-70 -24 -5 -224 c-6 -249
-9 -262 -76 -317 -96 -79 -237 -53 -301 55 -23 40 -27 59 -31 154 -3 60 -7
109 -10 109 -16 0 -171 -128 -261 -214 -355 -346 -566 -787 -611 -1280 -5 -60
-11 -111 -13 -113 -2 -1 -26 -6 -53 -9 -195 -26 -299 -227 -206 -399 31 -56
95 -109 150 -125 25 -7 723 -10 2143 -10 1862 0 2111 2 2150 15 103 35 171
134 172 248 0 149 -95 251 -250 272 l-53 7 0 61 c0 34 -7 108 -15 164 -63 442
-276 859 -596 1168 -95 92 -249 215 -268 215 -7 0 -11 -38 -11 -104 0 -120 -6
-140 -56 -196 -52 -57 -123 -78 -197 -56 -53 15 -100 54 -128 106 -10 18 -15
86 -19 249 l-5 224 -70 24 c-137 46 -349 93 -422 93 l-33 0 0 -272 c0 -244 -2
-277 -19 -314 -46 -101 -174 -148 -271 -98 -35 17 -87 73 -99 107 -7 18 -11
134 -11 303 l0 274 -42 -1 c-24 0 -74 -7 -113 -14z"/>
<path d="M5080 19155 c0 -952 725 -1779 1685 -1920 147 -22 425 -22 570 0 641
96 1184 487 1474 1061 134 266 197 516 208 822 l6 162 -1972 0 -1971 0 0 -125z"/>
<path d="M6100 16698 c0 -7 104 -304 232 -661 l231 -649 -1156 -1156 c-929
-929 -1156 -1151 -1152 -1127 89 511 208 953 345 1280 23 55 49 118 58 140 17
39 17 37 22 -175 l5 -215 18 75 c80 326 198 1025 282 1660 33 257 95 804 91
808 -2 2 -32 -4 -67 -13 -376 -95 -728 -304 -1004 -597 -325 -345 -571 -762
-778 -1318 -292 -785 -478 -1857 -533 -3086 l-7 -152 -1343 -1343 c-739 -739
-1344 -1348 -1344 -1354 0 -6 1053 -1063 2340 -2350 l2340 -2340 0 -1367 c0
-912 4 -1393 11 -1445 12 -93 67 -263 111 -346 142 -266 393 -465 687 -545 87
-23 113 -26 276 -26 163 0 189 3 277 26 349 95 624 347 744 684 68 189 64 57
64 2278 l0 2011 200 200 200 200 0 -2216 c0 -2432 -3 -2297 60 -2470 124 -342
393 -589 745 -686 92 -25 114 -28 275 -28 146 0 189 4 261 22 365 92 654 361
774 718 58 171 55 -18 55 3550 l0 3280 333 333 332 332 54 -61 c143 -162 317
-240 534 -240 219 0 407 88 544 252 53 65 117 191 138 274 16 63 38 411 54
859 l8 248 692 692 c380 380 691 696 691 701 0 6 -337 347 -749 759 l-749 749
-7 56 c-36 305 -129 804 -210 1131 -367 1461 -1055 2375 -1964 2606 -52 13
-96 23 -98 21 -4 -5 47 -470 82 -746 33 -252 87 -629 123 -849 l29 -174 -698
698 -697 697 18 51 c10 28 41 116 69 194 28 79 51 148 51 153 0 5 -387 9 -950
9 -735 0 -950 -3 -950 -12z m3948 -2971 l2372 -2372 -3645 -3645 -3645 -3645
-2375 2375 -2375 2375 1147 1148 1148 1147 -3 -353 -3 -352 -834 -835 c-459
-459 -835 -839 -835 -845 0 -5 37 -47 82 -92 l83 -83 757 757 758 758 0 -70
c0 -112 19 -579 35 -845 16 -271 26 -325 85 -441 l38 -76 -439 -439 -439 -439
82 -82 c46 -46 87 -83 93 -83 5 0 206 195 444 434 l435 435 25 -18 c50 -35
130 -71 207 -92 66 -18 97 -21 208 -17 115 4 141 9 212 35 237 89 400 278 450
524 16 76 16 107 5 324 -6 132 -11 262 -11 290 l0 50 2397 2397 2398 2398 -88
87 -87 88 -2318 -2318 -2319 -2319 -6 228 c-9 287 -8 863 2 1147 l7 218 1919
1919 1920 1920 -88 87 -87 88 -1820 -1820 -1820 -1820 0 45 c0 55 14 218 41
500 l21 215 1742 1743 c957 958 1743 1742 1746 1742 3 0 1073 -1068 2378
-2373z"/>
<path d="M6312 10167 l-3382 -3382 84 -84 85 -84 3385 3378 c1862 1858 3386
3381 3386 3384 0 7 -163 171 -170 171 -3 0 -1527 -1522 -3388 -3383z"/>
<path d="M7276 9198 l-3376 -3383 82 -82 c46 -46 85 -83 88 -83 8 0 6754 6749
6759 6761 4 13 -148 169 -165 169 -7 0 -1531 -1522 -3388 -3382z"/>
<path d="M8245 8230 l-3380 -3380 88 -87 87 -88 3380 3380 c1859 1859 3380
3385 3380 3390 0 13 -152 165 -165 165 -6 0 -1531 -1521 -3390 -3380z"/>
</g>
</svg>
